<?xml version="1.0" encoding="UTF-8" standalone="no"?>
<!-- Created with Inkscape (http://www.inkscape.org/) -->

<svg
   width="164mm"
   height="125mm"
   viewBox="0 0 164 125"
   version="1.1"
   id="svg1"
   xml:space="preserve"
   inkscape:version="1.3.2 (091e20e, 2023-11-25, custom)"
   sodipodi:docname="GeoSearch2.svg"
   xmlns:inkscape="http://www.inkscape.org/namespaces/inkscape"
   xmlns:sodipodi="http://sodipodi.sourceforge.net/DTD/sodipodi-0.dtd"
   xmlns:xlink="http://www.w3.org/1999/xlink"
   xmlns="http://www.w3.org/2000/svg"
   xmlns:svg="http://www.w3.org/2000/svg"
   xmlns:rdf="http://www.w3.org/1999/02/22-rdf-syntax-ns#"
   xmlns:cc="http://creativecommons.org/ns#"
   xmlns:dc="http://purl.org/dc/elements/1.1/"><defs
     id="defs1"><rect
       x="235"
       y="233.57143"
       width="47.142857"
       height="28.571429"
       id="rect32" /><rect
       x="622.85714"
       y="272.85714"
       width="227.14286"
       height="98.571429"
       id="rect29" /><rect
       x="-110.71429"
       y="288.57143"
       width="569.28571"
       height="101.42857"
       id="rect28" /><rect
       x="123.57143"
       y="235.71429"
       width="0.71428573"
       height="28.571428"
       id="rect12" /><path
       id="a"
       d="m128 3c69.090909 0 125 55.9090909 125 125 0 69.090909-55.909091 125-125 125-69.0909091 0-125-55.909091-125-125 0-69.0909091 55.9090909-125 125-125z" /><filter
       id="b"
       height="1.0384"
       width="1.0384"
       x="-0.0192"
       y="-0.0192"><feOffset
         dx="0"
         dy="0"
         in="SourceAlpha"
         result="shadowOffsetOuter1"
         id="feOffset1" /><feGaussianBlur
         in="shadowOffsetOuter1"
         result="shadowBlurOuter1"
         stdDeviation="2"
         id="feGaussianBlur1" /><feColorMatrix
         in="shadowBlurOuter1"
         type="matrix"
         values="0 0 0 0 0   0 0 0 0 0   0 0 0 0 0  0 0 0 0.3 0"
         id="feColorMatrix1" /></filter><mask
       id="c"
       fill="#fff"><path
         d="m128 0c70.749091 0 128 57.2509091 128 128 0 70.749091-57.250909 128-128 128-70.7490909 0-128-57.250909-128-128 0-70.7490909 57.2509091-128 128-128z"
         fill="#fff"
         id="path1-61" /></mask><inkscape:path-effect
       effect="spiro"
       id="path-effect27"
       is_visible="true"
       lpeversion="1" /><inkscape:path-effect
       effect="spiro"
       id="path-effect26"
       is_visible="true"
       lpeversion="1" /><inkscape:path-effect
       effect="spiro"
       id="path-effect25"
       is_visible="true"
       lpeversion="1" /><inkscape:path-effect
       effect="spiro"
       id="path-effect24"
       is_visible="true"
       lpeversion="1" /><inkscape:path-effect
       effect="spiro"
       id="path-effect23"
       is_visible="true"
       lpeversion="1" /><inkscape:path-effect
       effect="spiro"
       id="path-effect22"
       is_visible="true"
       lpeversion="1" /><inkscape:path-effect
       effect="spiro"
       id="path-effect21"
       is_visible="true"
       lpeversion="1" /><inkscape:path-effect
       effect="spiro"
       id="path-effect20"
       is_visible="true"
       lpeversion="1" /><inkscape:path-effect
       effect="spiro"
       id="path-effect20-8"
       is_visible="true"
       lpeversion="1" /><inkscape:path-effect
       effect="spiro"
       id="path-effect21-2"
       is_visible="true"
       lpeversion="1" /><inkscape:path-effect
       effect="spiro"
       id="path-effect22-1"
       is_visible="true"
       lpeversion="1" /><inkscape:path-effect
       effect="spiro"
       id="path-effect23-1"
       is_visible="true"
       lpeversion="1" /><inkscape:path-effect
       effect="spiro"
       id="path-effect24-1"
       is_visible="true"
       lpeversion="1" /><inkscape:path-effect
       effect="spiro"
       id="path-effect25-5"
       is_visible="true"
       lpeversion="1" /><inkscape:path-effect
       effect="spiro"
       id="path-effect26-4"
       is_visible="true"
       lpeversion="1" /><inkscape:path-effect
       effect="spiro"
       id="path-effect27-3"
       is_visible="true"
       lpeversion="1" /><inkscape:path-effect
       effect="spiro"
       id="path-effect20-8-7"
       is_visible="true"
       lpeversion="1" /><inkscape:path-effect
       effect="spiro"
       id="path-effect21-2-3"
       is_visible="true"
       lpeversion="1" /><inkscape:path-effect
       effect="spiro"
       id="path-effect22-1-2"
       is_visible="true"
       lpeversion="1" /><inkscape:path-effect
       effect="spiro"
       id="path-effect23-1-2"
       is_visible="true"
       lpeversion="1" /><inkscape:path-effect
       effect="spiro"
       id="path-effect24-1-4"
       is_visible="true"
       lpeversion="1" /><inkscape:path-effect
       effect="spiro"
       id="path-effect25-5-1"
       is_visible="true"
       lpeversion="1" /><inkscape:path-effect
       effect="spiro"
       id="path-effect26-4-1"
       is_visible="true"
       lpeversion="1" /><inkscape:path-effect
       effect="spiro"
       id="path-effect27-3-1"
       is_visible="true"
       lpeversion="1" /></defs><sodipodi:namedview
     id="base"
     pagecolor="#ffffff"
     bordercolor="#000000"
     borderopacity="0.3"
     inkscape:pageopacity="0.0"
     inkscape:pageshadow="2"
     inkscape:zoom="0.90509668"
     inkscape:cx="-35.907766"
     inkscape:cy="195.55922"
     inkscape:document-units="mm"
     inkscape:showpageshadow="2"
     inkscape:pagecheckerboard="0"
     inkscape:deskcolor="#d1d1d1"
     inkscape:window-width="1662"
     inkscape:window-height="1250"
     inkscape:window-x="1484"
     inkscape:window-y="175"
     inkscape:window-maximized="0"
     inkscape:current-layer="svg1"
     showguides="true"><sodipodi:guide
       position="-204.48471,-95.927096"
       orientation="1,0"
       id="guide13"
       inkscape:locked="false" /></sodipodi:namedview><metadata
     id="metadata1"><rdf:RDF><cc:Work
         rdf:about=""><dc:format>image/svg+xml</dc:format><dc:type
           rdf:resource="http://purl.org/dc/dcmitype/StillImage" /></cc:Work></rdf:RDF></metadata><g
     inkscape:label="Warstwa 1"
     id="layer1"
     transform="matrix(0.26458333,0,0,0.26458333,45.566478,-54.124331)" /><g
     id="g34"
     transform="translate(95.02498,41.510299)"
     style="display:inline;opacity:0.179;mix-blend-mode:soft-light;fill:#e5e5e5;fill-opacity:0.59;stroke:#919191;stroke-opacity:1"><g
       id="g33"
       transform="matrix(0.26458333,0,0,0.26458333,45.566478,-54.124331)"
       style="fill:#e5e5e5;fill-opacity:0.59;stroke:#919191;stroke-opacity:1"><g
         id="g36"
         style="stroke:#9e9e9e;stroke-opacity:1"><path
           style="fill:#e5e5e5;fill-opacity:0.59;stroke:#9e9e9e;stroke-width:0.990608;stroke-dasharray:none;stroke-opacity:1"
           d="m -517.40257,251.58585 30.6052,73.05757"
           id="path29" /><path
           style="fill:#e5e5e5;fill-opacity:0.59;stroke:#9e9e9e;stroke-width:0.990608;stroke-dasharray:none;stroke-opacity:1"
           d="M -271.5737,333.52881 -510.49171,257.50943"
           id="path30" /><path
           style="fill:#e5e5e5;fill-opacity:0.59;stroke:#9e9e9e;stroke-width:0.990608;stroke-dasharray:none;stroke-opacity:1"
           d="m -538.13512,622.79729 9.87264,-360.35154"
           id="path31" /><path
           style="fill:#e5e5e5;fill-opacity:0.59;stroke:#9e9e9e;stroke-width:0.990608;stroke-dasharray:none;stroke-opacity:1"
           d="m -415.58086,124.52828 74.04483,95.76465"
           id="path6" /><path
           style="fill:#e5e5e5;fill-opacity:0.59;stroke:#9e9e9e;stroke-width:0.990608;stroke-dasharray:none;stroke-opacity:1"
           d="m 119.459,206.33827 101.68825,22.70709"
           id="path21"
           inkscape:path-effect="#path-effect21"
           inkscape:original-d="m 119.459,206.33827 101.68825,22.70709"
           transform="translate(-460.00776,8.0310684)" /><path
           style="fill:#e5e5e5;fill-opacity:0.59;stroke:#9e9e9e;stroke-width:0.990608;stroke-dasharray:none;stroke-opacity:1"
           d="M 224.10904,230.03263 189.55478,336.65719"
           id="path22"
           inkscape:path-effect="#path-effect22"
           inkscape:original-d="M 224.10904,230.03263 189.55478,336.65719"
           transform="translate(-460.00776,8.0310684)" /><path
           style="fill:#e5e5e5;fill-opacity:0.59;stroke:#9e9e9e;stroke-width:0.990608;stroke-dasharray:none;stroke-opacity:1"
           d="M 79.968423,387.00768 179.68213,338.63172"
           id="path23"
           inkscape:path-effect="#path-effect23"
           inkscape:original-d="M 79.968423,387.00768 179.68213,338.63172"
           transform="translate(-460.00776,8.0310684)" /><path
           style="fill:#e5e5e5;fill-opacity:0.59;stroke:#9e9e9e;stroke-width:0.990608;stroke-dasharray:none;stroke-opacity:1"
           d="M 117.48447,209.30006 84.904745,384.04588"
           id="path24"
           inkscape:path-effect="#path-effect24"
           inkscape:original-d="M 117.48447,209.30006 84.904745,384.04588"
           transform="translate(-460.00776,8.0310684)" /><path
           style="fill:#e5e5e5;fill-opacity:0.59;stroke:#9e9e9e;stroke-width:0.990608;stroke-dasharray:none;stroke-opacity:1"
           d="M 51.337753,125.38259 86.879274,392.93126"
           id="path25"
           inkscape:path-effect="#path-effect25"
           inkscape:original-d="M 51.337753,125.38259 86.879274,392.93126"
           transform="translate(-460.00776,8.0310684)" /><path
           style="fill:#e5e5e5;fill-opacity:0.59;stroke:#9e9e9e;stroke-width:0.990608;stroke-dasharray:none;stroke-opacity:1"
           d="M 195.47836,346.52983 115.50994,203.37648"
           id="path26"
           inkscape:path-effect="#path-effect26"
           inkscape:original-d="M 195.47836,346.52983 115.50994,203.37648"
           transform="translate(-460.00776,8.0310684)" /><path
           style="fill:#e5e5e5;fill-opacity:0.59;stroke:#9e9e9e;stroke-width:0.990608;stroke-dasharray:none;stroke-opacity:1"
           d="M 227.07083,229.04536 85.89201,387.00768"
           id="path27"
           inkscape:path-effect="#path-effect27"
           inkscape:original-d="M 227.07083,229.04536 85.89201,387.00768"
           transform="translate(-460.00776,8.0310684)" /><path
           style="fill:#e5e5e5;fill-opacity:0.59;stroke:#9e9e9e;stroke-width:1.16216;stroke-dasharray:none;stroke-opacity:1"
           d="m -530.51207,252.34108 89.13678,-109.48889"
           id="path6-7" /><path
           style="fill:#e5e5e5;fill-opacity:0.59;stroke:#9e9e9e;stroke-width:1.16216;stroke-dasharray:none;stroke-opacity:1"
           d="M -316.58379,122.53465 -361.74643,0.62948539"
           id="path7-2" /><path
           style="fill:#e5e5e5;fill-opacity:0.59;stroke:#9e9e9e;stroke-width:0.990608;stroke-dasharray:none;stroke-opacity:1"
           d="m 119.459,206.33827 101.68825,22.70709"
           id="path21-1"
           inkscape:path-effect="#path-effect21-2"
           inkscape:original-d="m 119.459,206.33827 101.68825,22.70709"
           transform="matrix(1.2038217,0,0,-1.1433122,-583.99414,385.53376)" /><path
           style="fill:#e5e5e5;fill-opacity:0.59;stroke:#9e9e9e;stroke-width:0.990608;stroke-dasharray:none;stroke-opacity:1"
           d="M 79.968423,387.00768 179.68213,338.63172"
           id="path23-7"
           inkscape:path-effect="#path-effect23-1"
           inkscape:original-d="M 79.968423,387.00768 179.68213,338.63172"
           transform="matrix(1.2038217,0,0,-1.1433122,-583.99414,385.53376)" /><path
           style="fill:#e5e5e5;fill-opacity:0.59;stroke:#9e9e9e;stroke-width:0.990608;stroke-dasharray:none;stroke-opacity:1"
           d="M 117.48447,209.30006 84.904745,384.04588"
           id="path24-3"
           inkscape:path-effect="#path-effect24-1"
           inkscape:original-d="M 117.48447,209.30006 84.904745,384.04588"
           transform="matrix(1.2038217,0,0,-1.1433122,-583.99414,385.53376)" /><path
           style="fill:#e5e5e5;fill-opacity:0.59;stroke:#9e9e9e;stroke-width:0.990608;stroke-dasharray:none;stroke-opacity:1"
           d="M 51.337753,125.38259 86.879274,392.93126"
           id="path25-0"
           inkscape:path-effect="#path-effect25-5"
           inkscape:original-d="M 51.337753,125.38259 86.879274,392.93126"
           transform="matrix(1.2038217,0,0,-1.1433122,-583.99414,385.53376)" /><path
           style="fill:#e5e5e5;fill-opacity:0.59;stroke:#9e9e9e;stroke-width:0.990608;stroke-dasharray:none;stroke-opacity:1"
           d="M 195.47836,346.52983 115.50994,203.37648"
           id="path26-0"
           inkscape:path-effect="#path-effect26-4"
           inkscape:original-d="M 195.47836,346.52983 115.50994,203.37648"
           transform="matrix(1.2038217,0,0,-1.1433122,-583.99414,385.53376)" /><path
           style="fill:#e5e5e5;fill-opacity:0.59;stroke:#9e9e9e;stroke-width:0.990608;stroke-dasharray:none;stroke-opacity:1"
           d="M 227.07083,229.04536 85.89201,387.00768"
           id="path27-4"
           inkscape:path-effect="#path-effect27-3"
           inkscape:original-d="M 227.07083,229.04536 85.89201,387.00768"
           transform="matrix(1.2038217,0,0,-1.1433122,-583.99414,385.53376)" /><path
           style="fill:#e5e5e5;fill-opacity:0.59;stroke:#9e9e9e;stroke-width:1.16216;stroke-dasharray:none;stroke-opacity:1"
           d="m -533.80343,628.24025 89.13678,-109.48889"
           id="path6-7-8" /><path
           style="fill:#e5e5e5;fill-opacity:0.59;stroke:#9e9e9e;stroke-width:1.16216;stroke-dasharray:none;stroke-opacity:1"
           d="M -319.87515,498.43382 -365.0378,376.52866"
           id="path7-2-8" /><path
           style="fill:#e5e5e5;fill-opacity:0.59;stroke:#9e9e9e;stroke-width:0.990608;stroke-dasharray:none;stroke-opacity:1"
           d="m 119.459,206.33827 101.68825,22.70709"
           id="path21-1-9"
           inkscape:original-d="m 119.459,206.33827 101.68825,22.70709"
           inkscape:path-effect="#path-effect21-2-3"
           transform="matrix(1.2038217,0,0,-1.1433122,-587.2855,761.43293)" /><path
           style="fill:#e5e5e5;fill-opacity:0.59;stroke:#9e9e9e;stroke-width:0.990608;stroke-dasharray:none;stroke-opacity:1"
           d="M 79.968423,387.00768 179.68213,338.63172"
           id="path23-7-8"
           inkscape:original-d="M 79.968423,387.00768 179.68213,338.63172"
           inkscape:path-effect="#path-effect23-1-2"
           transform="matrix(1.2038217,0,0,-1.1433122,-587.2855,761.43293)" /><path
           style="fill:#e5e5e5;fill-opacity:0.59;stroke:#9e9e9e;stroke-width:0.990608;stroke-dasharray:none;stroke-opacity:1"
           d="M 117.48447,209.30006 84.904745,384.04588"
           id="path24-3-0"
           inkscape:original-d="M 117.48447,209.30006 84.904745,384.04588"
           inkscape:path-effect="#path-effect24-1-4"
           transform="matrix(1.2038217,0,0,-1.1433122,-587.2855,761.43293)" /><path
           style="fill:#e5e5e5;fill-opacity:0.59;stroke:#9e9e9e;stroke-width:0.990608;stroke-dasharray:none;stroke-opacity:1"
           d="M 51.337753,125.38259 86.879274,392.93126"
           id="path25-0-0"
           inkscape:original-d="M 51.337753,125.38259 86.879274,392.93126"
           inkscape:path-effect="#path-effect25-5-1"
           transform="matrix(1.2038217,0,0,-1.1433122,-587.2855,761.43293)" /><path
           style="fill:#e5e5e5;fill-opacity:0.59;stroke:#9e9e9e;stroke-width:0.990608;stroke-dasharray:none;stroke-opacity:1"
           d="M 195.47836,346.52983 115.50994,203.37648"
           id="path26-0-1"
           inkscape:original-d="M 195.47836,346.52983 115.50994,203.37648"
           inkscape:path-effect="#path-effect26-4-1"
           transform="matrix(1.2038217,0,0,-1.1433122,-587.2855,761.43293)" /><path
           style="fill:#e5e5e5;fill-opacity:0.59;stroke:#9e9e9e;stroke-width:0.990608;stroke-dasharray:none;stroke-opacity:1"
           d="M 227.07083,229.04536 85.89201,387.00768"
           id="path27-4-0"
           inkscape:original-d="M 227.07083,229.04536 85.89201,387.00768"
           inkscape:path-effect="#path-effect27-3-1"
           transform="matrix(1.2038217,0,0,-1.1433122,-587.2855,761.43293)" /></g><g
         id="g35"
         style="fill:#c6c6c6;fill-opacity:1;stroke:#4d4d4d;stroke-opacity:0"><ellipse
           style="fill:#c6c6c6;fill-opacity:1;stroke:#4d4d4d;stroke-width:1.16216;stroke-dasharray:none;stroke-opacity:0"
           id="path1-4-7"
           cx="-445.85513"
           cy="-525.52386"
           transform="scale(1,-1)"
           rx="13.073394"
           ry="12.416266" /><ellipse
           style="fill:#c6c6c6;fill-opacity:1;stroke:#4d4d4d;stroke-width:1.16216;stroke-dasharray:none;stroke-opacity:0"
           id="path2-6-4"
           cx="-360.87808"
           cy="-379.35052"
           transform="scale(1,-1)"
           rx="29.118013"
           ry="27.654411" /><ellipse
           style="fill:#c6c6c6;fill-opacity:1;stroke:#4d4d4d;stroke-width:1.16216;stroke-dasharray:none;stroke-opacity:0"
           id="path3-2-0"
           cx="-317.49817"
           cy="-500.69135"
           transform="scale(1,-1)"
           rx="20.204336"
           ry="19.188774" /><ellipse
           style="fill:#c6c6c6;fill-opacity:1;stroke:#4d4d4d;stroke-width:1.16216;stroke-dasharray:none;stroke-opacity:0"
           id="path4-7-9"
           cx="-484.48108"
           cy="-320.65549"
           transform="scale(1,-1)"
           rx="19.610092"
           ry="18.624399" /><ellipse
           style="fill:#c6c6c6;fill-opacity:1;stroke:#4d4d4d;stroke-width:1.16216;stroke-dasharray:none;stroke-opacity:0"
           id="path5-1-5"
           cx="-526.07825"
           cy="-629.93335"
           transform="scale(1,-1)"
           rx="27.929523"
           ry="26.52566" /><ellipse
           style="fill:#c6c6c6;fill-opacity:1;stroke:#4d4d4d;stroke-width:1.16216;stroke-dasharray:none;stroke-opacity:0"
           id="path1-4"
           cx="-442.56378"
           cy="-149.62469"
           transform="scale(1,-1)"
           rx="13.073394"
           ry="12.416266" /><ellipse
           style="fill:#c6c6c6;fill-opacity:1;stroke:#4d4d4d;stroke-width:1.16216;stroke-dasharray:none;stroke-opacity:0"
           id="path2-6"
           cx="-357.5867"
           cy="-3.4513717"
           transform="scale(1,-1)"
           rx="29.118013"
           ry="27.654411" /><ellipse
           style="fill:#c6c6c6;fill-opacity:1;stroke:#4d4d4d;stroke-width:1.16216;stroke-dasharray:none;stroke-opacity:0"
           id="path3-2"
           cx="-314.20682"
           cy="-124.79216"
           transform="scale(1,-1)"
           rx="20.204336"
           ry="19.188774" /><ellipse
           style="fill:#c6c6c6;fill-opacity:1;stroke:#4d4d4d;stroke-width:1.16216;stroke-dasharray:none;stroke-opacity:0"
           id="path4-7"
           cx="-481.18973"
           cy="55.243694"
           transform="scale(1,-1)"
           rx="19.610092"
           ry="18.624399" /><ellipse
           style="fill:#c6c6c6;fill-opacity:1;stroke:#4d4d4d;stroke-width:1.16216;stroke-dasharray:none;stroke-opacity:0"
           id="path5-1"
           cx="-522.78687"
           cy="-254.03421"
           transform="scale(1,-1)"
           rx="27.929523"
           ry="26.52566" /><circle
           style="fill:#c6c6c6;fill-opacity:1;stroke:#4d4d4d;stroke-width:0.990608;stroke-dasharray:none;stroke-opacity:0"
           id="path1-2"
           cx="-342.52328"
           cy="214.36932"
           r="10.859909" /><circle
           style="fill:#c6c6c6;fill-opacity:1;stroke:#4d4d4d;stroke-width:0.990608;stroke-dasharray:none;stroke-opacity:0"
           id="path2-34"
           cx="-271.93387"
           cy="342.22009"
           r="24.187979" /><circle
           style="fill:#c6c6c6;fill-opacity:1;stroke:#4d4d4d;stroke-width:0.990608;stroke-dasharray:none;stroke-opacity:0"
           id="path3-4"
           cx="-235.89876"
           cy="236.08917"
           r="16.783495" /><circle
           style="fill:#c6c6c6;fill-opacity:1;stroke:#4d4d4d;stroke-width:0.990608;stroke-dasharray:none;stroke-opacity:0"
           id="path5"
           cx="-409.16364"
           cy="123.04738"
           r="23.200714" /></g></g></g><rect
     style="mix-blend-mode:darken;fill:#f4f8f3;fill-opacity:1;fill-rule:nonzero;stroke:none;stroke-width:0.273618;stroke-dasharray:none"
     id="rect13"
     width="148.49715"
     height="105.95789"
     x="8.665349"
     y="9.3738108"
     inkscape:label="rect13"
     sodipodi:insensitive="true" /><text
     xml:space="preserve"
     style="font-size:3.49614659px;white-space:pre;inline-size:40.875;display:inline;fill:#000000;stroke-width:0.264583;-inkscape-font-specification:'Calisto MT';font-family:'Calisto MT';font-weight:normal;font-style:normal;font-stretch:normal;font-variant:normal"
     x="62.541069"
     y="58.532024"
     id="text1"
     transform="matrix(3.6325708,0,0,3.6325708,-179.44029,-185.97037)"><tspan
       x="62.541069"
       y="58.532024"
       id="tspan4">GeoSearch
</tspan><tspan
       x="62.541069"
       y="62.902212"
       id="tspan5">
</tspan></text><text
     xml:space="preserve"
     style="font-style:normal;font-variant:normal;font-weight:normal;font-stretch:normal;font-size:7.05556px;font-family:'Calisto MT';-inkscape-font-specification:'Calisto MT';fill:#000000;stroke-width:0.264583"
     x="16.358725"
     y="42.706093"
     id="text6"><tspan
       sodipodi:role="line"
       id="tspan6"
       style="font-style:normal;font-variant:normal;font-weight:normal;font-stretch:normal;font-family:'Calisto MT';-inkscape-font-specification:'Calisto MT';fill:#4d4d4d;stroke-width:0.264583"
       x="16.358725"
       y="42.706093">Overview</tspan><tspan
       sodipodi:role="line"
       style="font-style:normal;font-variant:normal;font-weight:normal;font-stretch:normal;font-family:'Calisto MT';-inkscape-font-specification:'Calisto MT';stroke-width:0.264583"
       x="16.358725"
       y="51.525543"
       id="tspan8" /><tspan
       sodipodi:role="line"
       style="font-style:normal;font-variant:normal;font-weight:normal;font-stretch:normal;font-family:'Calisto MT';-inkscape-font-specification:'Calisto MT';stroke-width:0.264583"
       x="16.358725"
       y="60.344994"
       id="tspan9" /></text><text
     xml:space="preserve"
     style="font-size:5.64444px;white-space:pre;inline-size:120.404;display:inline;fill:#000000;stroke-width:0.264583"
     x="32.505951"
     y="61.232143"
     id="text10"
     transform="translate(-15.345837,-7.4083335)"><tspan
       x="32.505951"
       y="61.232143"
       id="tspan11"><tspan
         style="font-family:'Calisto MT';-inkscape-font-specification:'Calisto MT'"
         id="tspan7">Search for places around the world via the </tspan></tspan><tspan
       x="32.505951"
       y="68.372159"
       id="tspan14"><tspan
         style="font-family:'Calisto MT';-inkscape-font-specification:'Calisto MT'"
         id="tspan12">Nomination API</tspan></tspan></text><text
     xml:space="preserve"
     transform="scale(0.26458333)"
     id="text12"
     style="font-size:16px;white-space:pre;shape-inside:url(#rect12);display:inline;fill:#000000" /><text
     xml:space="preserve"
     transform="scale(0.26458333)"
     id="text28"
     style="font-style:normal;font-variant:normal;font-weight:bold;font-stretch:normal;font-size:16px;font-family:'Calisto MT';-inkscape-font-specification:'Calisto MT Bold';white-space:pre;shape-inside:url(#rect28);display:inline;fill:#4d4d4d;fill-opacity:1;fill-rule:nonzero;stroke:none;stroke-width:1.00157;stroke-dasharray:none" /><text
     xml:space="preserve"
     transform="scale(0.26458333)"
     id="text29"
     style="font-style:normal;font-variant:normal;font-weight:bold;font-stretch:normal;font-size:16px;font-family:'Calisto MT';-inkscape-font-specification:'Calisto MT Bold';white-space:pre;shape-inside:url(#rect29);display:inline;fill:#4d4d4d;fill-opacity:1;fill-rule:nonzero;stroke:none;stroke-width:1.00157;stroke-dasharray:none" /><path
     d="m 106.84056,86.134912 a 4.8794142,4.8794142 0 0 1 2.45184,1.412868 6.4555178,6.4555178 0 0 1 0.9397,1.260664 c 0.0125,0.04963 -1.69191,1.194484 -2.72536,1.833089 -0.0375,0.02536 -0.1864,-0.136769 -0.35515,-0.386032 a 2.2213246,2.2213246 0 0 0 -1.84191,-1.102943 c -1.18787,-0.08164 -1.9533,0.540445 -1.9478,1.580517 a 1.4338242,1.4338242 0 0 0 0.16875,0.734565 c 0.26141,0.540434 0.74669,0.864706 2.27096,1.525364 2.80588,1.207719 4.01029,2.004046 4.75367,3.135659 a 5.6889733,5.6889733 0 0 1 0.45883,4.779027 5.2544143,5.2544143 0 0 1 -4.33676,3.10478 12.022064,12.022064 0 0 1 -2.98677,-0.031 7.2033123,7.2033123 0 0 1 -3.988256,-2.07794 6.924268,6.924268 0 0 1 -1.02132,-1.51212 2.9283103,2.9283103 0 0 1 0.36066,-0.22941 c 0.17427,-0.0993 0.83382,-0.478677 1.455876,-0.839334 l 1.12944,-0.661767 0.23602,0.344117 a 5.2621349,5.2621349 0 0 0 1.48897,1.424994 3.6397076,3.6397076 0 0 0 3.81398,-0.19301 1.7040449,1.7040449 0 0 0 0.22059,-2.177198 c -0.30441,-0.435627 -0.92647,-0.801804 -2.69449,-1.568351 a 9.705887,9.705887 0 0 1 -3.69375,-2.266544 5.1694878,5.1694878 0 0 1 -1.076496,-1.959921 7.8485333,7.8485333 0 0 1 -0.0684,-2.501474 4.7779435,4.7779435 0 0 1 4.019146,-3.721321 9.9264757,9.9264757 0 0 1 2.96801,0.09264 z m -9.201856,1.635659 0.0125,1.60368 h -5.10699 V 103.87571 H 88.94311 V 89.377559 h -5.106621 v -1.574998 a 15.425742,15.425742 0 0 1 0.04412,-1.616914 c 0.01876,-0.02536 3.123531,-0.03745 6.887872,-0.03091 l 6.850373,0.01872 z"
     style="fill:#007acc;stroke-width:1.10294"
     id="path1-6" /><g
     id="g30"
     transform="matrix(0.0918364,0,0,0.0918364,122.08428,84.51221)"><g
       mask="url(#c)"
       id="g2"><use
         filter="url(#b)"
         xlink:href="#a"
         id="use1" /><use
         fill="#ffffff"
         fill-rule="evenodd"
         xlink:href="#a"
         id="use2" /></g><path
       d="M 128,7.3859649 C 194.66667,7.3859649 248.61403,61.333333 248.61403,128 248.61403,194.66667 194.66667,248.61403 128,248.61403 61.333333,248.61403 7.3859649,194.66667 7.3859649,128 7.3859649,61.333333 61.333333,7.3859649 128,7.3859649 Z"
       fill="#5c5c5e"
       mask="url(#c)"
       id="path2-8" /><path
       d="m 192.03509,181.07017 c -4.38597,13.5965 -10.96492,23.68422 -20.17544,31.14036 -9.21053,7.45614 -21.49123,11.4035 -36.84211,12.7193 l -3.07017,-20.17544 c 10.08772,-1.31579 17.54386,-3.50878 22.36842,-7.01755 1.75438,-1.31579 5.26316,-5.26316 5.26316,-5.26316 L 123.17544,75.807018 h 30.26316 l 21.05263,87.280702 22.36842,-87.280702 h 29.38596 z M 86.333333,71.859649 c 7.017544,0 13.596492,0.877193 18.859647,3.070176 5.70176,2.192982 10.96491,5.263158 16.22807,9.649122 l -12.2807,16.666663 c -3.50877,-2.631575 -7.01754,-4.385961 -10.087718,-5.70175 -3.070176,-1.31579 -7.017544,-1.754386 -10.526316,-1.754386 -14.912281,0 -22.368421,11.403506 -22.368421,34.649126 0,11.8421 1.754386,20.17544 5.701754,25 3.947368,5.26315 9.210526,7.45614 16.666667,7.45614 3.508772,0 7.017544,-0.4386 10.087719,-1.75439 3.070175,-1.31579 6.578945,-3.07018 10.964915,-5.70175 l 12.2807,17.54386 c -10.08772,8.33333 -21.49123,12.2807 -34.649124,12.2807 -10.526316,0 -19.298245,-2.19299 -27.192982,-6.57895 C 52.561403,172.29825 46.421053,165.7193 42.473684,157.38596 38.526316,149.05263 36.333333,139.40351 36.333333,128 c 0,-10.96491 2.192983,-21.05263 6.140351,-29.385965 3.947369,-8.77193 10.087719,-15.350877 17.54386,-20.175439 7.45614,-3.947368 16.22807,-6.578947 26.315789,-6.578947 z"
       fill="#ffffff"
       mask="url(#c)"
       id="path3" /></g><g
     id="g31"
     transform="matrix(0.10364815,0,0,0.10364815,13.89147,85.05572)"><path
       d="M 204.8,0 H 256 L 128,220.8 0,0 H 50.56 97.92 L 128,51.2 157.44,0 Z"
       fill="#41b883"
       id="path1-7" /><path
       d="M 0,0 128,220.8 256,0 H 204.8 L 128,132.48 50.56,0 Z"
       fill="#41b883"
       id="path2-3" /><path
       d="M 50.56,0 128,133.12 204.8,0 H 157.44 L 128,51.2 97.92,0 Z"
       fill="#35495e"
       id="path3-3" /></g><g
     id="g32"
     transform="matrix(0.0940511,0,0,0.0940511,51.59375,83.939671)"><path
       d="M 0,0 H 256 V 256 H 0 Z"
       fill="#f7df1e"
       id="path1" /><path
       d="m 67.311746,213.93229 19.590908,-11.85605 c 3.779454,6.70111 7.217575,12.3709 15.464436,12.3709 7.90511,0 12.88899,-3.09232 12.88899,-15.12026 v -81.79809 h 24.0575 V 199.667 c 0,24.91733 -14.60582,36.25894 -35.91518,36.25894 -19.245105,0 -30.416457,-9.96734 -36.08706,-21.99568"
       id="path2" /><path
       d="m 152.38095,211.35441 19.58847,-11.34161 c 5.15657,8.42118 11.85849,14.60703 23.71495,14.60703 9.96815,0 16.32467,-4.98387 16.32467,-11.85767 0,-8.24848 -6.52962,-11.17014 -17.52787,-15.98009 l -6.01275,-2.57951 c -17.35721,-7.38783 -28.87111,-16.66722 -28.87111,-36.25772 0,-18.04353 13.7472,-31.79154 35.22844,-31.79154 15.29417,0 26.29201,5.32764 34.19591,19.24713 l -18.73107,12.02834 c -4.12444,-7.38864 -8.59103,-10.30948 -15.46443,-10.30948 -7.04569,0 -11.51391,4.46781 -11.51391,10.30948 0,7.21758 4.46822,10.13964 14.77771,14.60785 l 6.01396,2.57747 c 20.44953,8.76455 31.96343,17.69936 31.96343,37.8043 0,21.65353 -17.01221,33.50958 -39.86692,33.50958 -22.33945,0 -36.7746,-10.65366 -43.81907,-24.57356"
       id="path3-1" /></g><text
     xml:space="preserve"
     transform="scale(0.26458333)"
     id="text32"
     style="font-style:normal;font-variant:normal;font-weight:bold;font-stretch:normal;font-size:16px;font-family:'Calisto MT';-inkscape-font-specification:'Calisto MT Bold';white-space:pre;shape-inside:url(#rect32);display:inline;fill:#4d4d4d;fill-opacity:1;fill-rule:nonzero;stroke:none;stroke-width:1.00157;stroke-dasharray:none" /></svg>
